<svg width="108" height="60" viewBox="0 0 108 60" fill="none" xmlns="http://www.w3.org/2000/svg">
<g clip-path="url(#clip0_1_7)">
<path d="M24.2708 48.6054C32.3505 48.6054 39.8229 44.641 44.3184 37.9319L36.4208 32.5648C33.6871 36.6511 29.1308 39.0298 24.2708 39.0298C20.3829 39.0298 16.7377 37.5051 13.9433 34.7604C11.2094 32.0159 9.69069 28.2954 9.69069 24.3921C9.69069 20.4885 11.2094 16.7682 13.9433 14.0235C16.7377 11.218 20.3829 9.69329 24.2708 9.69329C29.1916 9.69329 33.7479 12.1328 36.4208 16.2192L44.3792 10.9131C39.8836 4.14312 32.3505 0.117645 24.2708 0.117645C21.051 0.117645 17.8921 0.788534 14.9152 2.06936C11.9993 3.28918 9.44769 4.99688 7.19995 7.25359C5.01289 9.44923 3.25117 12.0719 2.03616 14.9384C0.76041 17.9271 0.152908 21.0986 0.152908 24.3921C0.152908 27.6855 0.76041 30.8571 2.03616 33.8456C3.25117 36.7122 5.01289 39.2738 7.19995 41.5305C9.44769 43.7262 11.9993 45.4948 14.9152 46.7147C17.8921 47.9955 21.051 48.6054 24.2708 48.6054Z" fill="url(#paint0_linear_1_7)"/>
<path d="M46.6412 16.0972V48.2394H55.8147V13.0476L46.6412 16.0972Z" fill="url(#paint1_linear_1_7)"/>
<path d="M94.1566 24.514C93.3061 22.5014 92.0304 20.6106 90.4508 19.0249C88.8713 17.4391 87.0489 16.1583 84.9833 15.3044C82.7962 14.3895 80.5485 13.9016 78.2401 13.9016C75.8707 13.9016 73.623 14.3895 71.4967 15.3044C69.4312 16.1583 67.548 17.4391 65.9684 19.0249C64.3889 20.6106 63.1132 22.4403 62.2626 24.514C61.3514 26.7096 60.9261 28.9664 60.9261 31.2839V57.2661L70.0387 60.3157V46.5928C70.464 46.8977 70.9501 47.0807 71.4967 47.3246C73.623 48.2394 75.8707 48.6665 78.2401 48.6665C80.5485 48.6665 82.7962 48.2394 84.9833 47.3246C86.988 46.4706 88.8713 45.19 90.4508 43.6042C92.0304 42.0185 93.3061 40.1278 94.1566 38.0541C95.068 35.9193 95.554 33.6626 95.554 31.2839C95.554 28.9664 95.068 26.7096 94.1566 24.514ZM78.2401 39.5177C73.6838 39.5177 70.0387 35.8582 70.0387 31.2839C70.0387 26.7707 73.6838 23.0502 78.2401 23.0502C82.7356 23.0502 86.4414 26.7707 86.4414 31.2839C86.4414 35.8582 82.7356 39.5177 78.2401 39.5177Z" fill="url(#paint2_linear_1_7)"/>
<path d="M98.73 16.0972V48.2394H107.903V13.0476L98.73 16.0972Z" fill="url(#paint3_linear_1_7)"/>
</g>
<defs>
<linearGradient id="paint0_linear_1_7" x1="22.2661" y1="0.117645" x2="22.2661" y2="48.6054" gradientUnits="userSpaceOnUse">
<stop stop-color="#06B6D4"/>
<stop offset="1" stop-color="#0E7490"/>
</linearGradient>
<linearGradient id="paint1_linear_1_7" x1="51.2279" y1="13.0476" x2="51.2279" y2="48.2394" gradientUnits="userSpaceOnUse">
<stop stop-color="#06B6D4"/>
<stop offset="1" stop-color="#0E7490"/>
</linearGradient>
<linearGradient id="paint2_linear_1_7" x1="78.2399" y1="13.9016" x2="78.2399" y2="60.3157" gradientUnits="userSpaceOnUse">
<stop stop-color="#06B6D4"/>
<stop offset="1" stop-color="#0E7490"/>
</linearGradient>
<linearGradient id="paint3_linear_1_7" x1="103.317" y1="13.0476" x2="103.317" y2="48.2394" gradientUnits="userSpaceOnUse">
<stop stop-color="#06B6D4"/>
<stop offset="1" stop-color="#0E7490"/>
</linearGradient>
<clipPath id="clip0_1_7">
<rect width="108" height="60" fill="white"/>
</clipPath>
</defs>
</svg>
